<svg width="43" height="61" viewBox="0 0 43 61" fill="none" xmlns="http://www.w3.org/2000/svg">
<path d="M42.5 19.25C42.5 28.4594 34.9344 36.1406 25 37.7062V38C25 38.9946 24.6049 39.9484 23.9016 40.6516C23.1984 41.3549 22.2446 41.75 21.25 41.75C20.2554 41.75 19.3016 41.3549 18.5983 40.6516C17.8951 39.9484 17.5 38.9946 17.5 38V34.25C17.5 33.2554 17.8951 32.3016 18.5983 31.5984C19.3016 30.8951 20.2554 30.5 21.25 30.5C28.8312 30.5 35 25.4531 35 19.25C35 13.0469 28.8312 8 21.25 8C13.6687 8 7.5 13.0469 7.5 19.25C7.5 20.2446 7.10491 21.1984 6.40165 21.9017C5.69839 22.6049 4.74456 23 3.75 23C2.75544 23 1.80161 22.6049 1.09835 21.9017C0.395088 21.1984 0 20.2446 0 19.25C0 8.9125 9.53125 0.5 21.25 0.5C32.9688 0.5 42.5 8.9125 42.5 19.25ZM21.25 48C20.0139 48 18.8055 48.3666 17.7777 49.0533C16.7499 49.7401 15.9488 50.7162 15.4758 51.8582C15.0027 53.0003 14.8789 54.2569 15.1201 55.4693C15.3612 56.6817 15.9565 57.7953 16.8306 58.6694C17.7047 59.5435 18.8183 60.1388 20.0307 60.3799C21.2431 60.6211 22.4997 60.4973 23.6418 60.0242C24.7838 59.5512 25.7599 58.7501 26.4467 57.7223C27.1334 56.6945 27.5 55.4861 27.5 54.25C27.5 52.5924 26.8415 51.0027 25.6694 49.8306C24.4973 48.6585 22.9076 48 21.25 48Z" fill="#155D9C"/>
</svg>
